Coordinates
version=1
nRows=32
nColumns=12
inDegrees=yes

Units are S.I. units (second, meters, Newtons, ...)
Angles are in degrees

endheader
time	SC_y	SC_z	SC_x	AC_y	AC_z	AC_x	GH_y	GH_z	GH_yy	EL_x	PS_y
       0.0               -12.2          36.16         0.4298          62.95          8.232          5.192          -11.9         -15.31          67.66          27.98          45.38
   0.03952               -12.2          36.16         0.4347          62.95           8.23          5.194          -11.9         -15.31          67.65          27.99          45.39
   0.07905               -12.2          36.16         0.4398          62.95          8.228          5.196          -11.9          -15.3          67.64           28.0          45.39
    0.1186              -12.21          36.16         0.4453          62.95          8.226          5.198          -11.9          -15.3          67.62          28.02           45.4
    0.1581              -12.21          36.16         0.4511          62.94          8.223            5.2          -11.9         -15.29          67.61          28.03           45.4
    0.1976              -12.21          36.16         0.4573          62.94          8.221          5.202         -11.89         -15.28          67.59          28.04          45.41
    0.2371              -12.22          36.16          0.464          62.94          8.218          5.205         -11.89         -15.27          67.57          28.05          45.42
    0.2767              -12.22          36.16         0.4711          62.94          8.215          5.207         -11.89         -15.26          67.55          28.07          45.42
    0.3162              -12.23          36.15         0.4787          62.94          8.212           5.21         -11.89         -15.25          67.53          28.08          45.43
    0.3557              -12.23          36.15         0.4868          62.93          8.209          5.213         -11.89         -15.24          67.51           28.1          45.44
    0.3952              -12.24          36.15         0.4955          62.93          8.205          5.216         -11.88         -15.23          67.48          28.12          45.45
    0.4348              -12.24          36.15          0.505          62.93          8.201          5.219         -11.88         -15.22          67.46          28.14          45.46
    0.4743              -12.25          36.15         0.5151          62.92          8.197          5.223         -11.88         -15.21          67.43          28.16          45.47
    0.5138              -12.26          36.14         0.5261          62.92          8.192          5.227         -11.88         -15.19           67.4          28.18          45.48
    0.5533              -12.26          36.14          0.538          62.92          8.188          5.231         -11.87         -15.18          67.37           28.2          45.49
    0.5929              -12.27          36.14         0.5508          62.91          8.182          5.236         -11.87         -15.16          67.33          28.23           45.5
    0.6324              -12.28          36.14         0.5648          62.91          8.177          5.241         -11.86         -15.14          67.29          28.26          45.52
    0.6719              -12.29          36.13         0.5801           62.9           8.17          5.247         -11.86         -15.13          67.25          28.29          45.53
    0.7114               -12.3          36.13         0.5967           62.9          8.164          5.253         -11.86          -15.1           67.2          28.32          45.55
     0.751              -12.31          36.13         0.6149          62.89          8.156          5.259         -11.85         -15.08          67.15          28.36          45.56
    0.7905              -12.32          36.12         0.6349          62.89          8.148          5.266         -11.85         -15.06           67.1           28.4          45.58
      0.83              -12.34          36.12         0.6569          62.88          8.139          5.274         -11.84         -15.03          67.04          28.45          45.61
    0.8695              -12.35          36.11         0.6813          62.87          8.129          5.283         -11.83          -15.0          66.97           28.5          45.63
     0.909              -12.37          36.11         0.7082          62.86          8.118          5.293         -11.83         -14.96          66.89          28.55          45.66
    0.9486              -12.39           36.1         0.7382          62.85          8.105          5.304         -11.82         -14.93          66.81          28.61          45.69
    0.9881              -12.41          36.09         0.7716          62.84          8.092          5.316         -11.81         -14.88          66.72          28.68          45.72
     1.028              -12.43          36.09          0.809          62.83          8.076          5.329          -11.8         -14.84          66.62          28.76          45.76
     1.067              -12.45          36.08         0.8511          62.82          8.059          5.345         -11.79         -14.78           66.5          28.84           45.8
     1.107              -12.48          36.07         0.8987           62.8           8.04          5.362         -11.77         -14.72          66.37          28.94          45.85
     1.146              -12.52          36.06         0.9528          62.79          8.017          5.381         -11.76         -14.66          66.22          29.05           45.9
     1.186              -12.55          36.04          1.014          62.77          7.992          5.404         -11.74         -14.58          66.05          29.18          45.96
     1.225               -12.6          36.03          1.085          62.74          7.963          5.429         -11.72         -14.49          65.85          29.32          46.03
